<?xml version="1.0" encoding="UTF-8"?>
<svg id="Layer_2" data-name="Layer 2" xmlns="http://www.w3.org/2000/svg" viewBox="0 0 791.76 66.27">
  <g id="Layer_1-2" data-name="Layer 1">
    <g>
      <g>
        <g>
          <path d="M722.38,43.6c-2.94,0-5.8-.58-8.49-1.71-2.6-1.1-4.93-2.67-6.93-4.67-2-2-3.57-4.33-4.67-6.93-1.14-2.69-1.71-5.54-1.71-8.49s.58-5.8,1.71-8.49c1.1-2.6,2.67-4.93,4.67-6.93,2-2,4.33-3.57,6.93-4.67,2.69-1.14,5.54-1.71,8.49-1.71s5.8.58,8.49,1.71c2.6,1.1,4.93,2.67,6.93,4.67,2,2,3.57,4.33,4.67,6.93,1.14,2.69,1.71,5.54,1.71,8.49s-.58,5.8-1.71,8.49c-1.1,2.6-2.67,4.93-4.67,6.93-2,2-4.33,3.57-6.93,4.67-2.69,1.14-5.54,1.71-8.49,1.71ZM722.38,3.98c-9.82,0-17.82,7.99-17.82,17.82s7.99,17.82,17.82,17.82,17.82-7.99,17.82-17.82-7.99-17.82-17.82-17.82Z"/>
          <path d="M728.21,23.53h4.12c-.77,4.89-4.7,8.28-9.89,8.28-5.77,0-10.01-4.23-10.01-10.01s4.23-10.01,10.01-10.01c5.2,0,9.12,3.39,9.89,8.28h-4.12c-.65-2.77-2.89-4.62-5.77-4.62-3.46,0-5.97,2.69-5.97,6.35s2.5,6.35,5.97,6.35c2.89,0,5.12-1.89,5.77-4.62Z"/>
        </g>
        <g>
          <path d="M769.96,43.6c-2.94,0-5.8-.58-8.49-1.71-2.6-1.1-4.93-2.67-6.93-4.67-2-2-3.57-4.33-4.67-6.93-1.14-2.69-1.71-5.54-1.71-8.49s.58-5.8,1.71-8.49c1.1-2.6,2.67-4.93,4.67-6.93,2-2,4.33-3.57,6.93-4.67,2.69-1.14,5.54-1.71,8.49-1.71s5.8.58,8.49,1.71c2.6,1.1,4.93,2.67,6.93,4.67,2,2,3.57,4.33,4.67,6.93,1.14,2.69,1.71,5.54,1.71,8.49s-.58,5.8-1.71,8.49c-1.1,2.6-2.67,4.93-4.67,6.93-2,2-4.33,3.57-6.93,4.67-2.69,1.14-5.54,1.71-8.49,1.71ZM769.96,3.98c-9.82,0-17.82,7.99-17.82,17.82s7.99,17.82,17.82,17.82,17.82-7.99,17.82-17.82-7.99-17.82-17.82-17.82Z"/>
          <path d="M760.15,12.18h13.86c3.46,0,5.77,2.31,5.77,5.77,0,3.08-2,5.24-5.04,5.54.27.31.54.65.69.92l4.35,7.01h-4.35l-4.89-7.89h-6.54v7.89h-3.85V12.18ZM774,20.07c1.15,0,1.92-.77,1.92-1.92v-.58c0-1.15-.77-1.92-1.92-1.92h-10.01v4.43h10.01Z"/>
        </g>
      </g>
      <g>
        <path d="M35.75,47.53h9.33c-1.74,11.08-10.64,18.75-22.41,18.75-13.08,0-22.67-9.59-22.67-22.67s9.59-22.67,22.67-22.67c11.77,0,20.67,7.67,22.41,18.75h-9.33c-1.48-6.28-6.54-10.46-13.08-10.46-7.85,0-13.52,6.1-13.52,14.39s5.67,14.39,13.52,14.39c6.54,0,11.6-4.27,13.08-10.46Z"/>
        <path d="M55.98,21.8h31.39c7.85,0,13.08,5.23,13.08,13.08,0,6.98-4.53,11.86-11.42,12.56.61.7,1.22,1.48,1.57,2.09l9.85,15.87h-9.85l-11.07-17.88h-14.82v17.88h-8.72V21.8ZM87.37,39.68c2.62,0,4.36-1.74,4.36-4.36v-1.31c0-2.62-1.74-4.36-4.36-4.36h-22.67v10.03h22.67Z"/>
        <path d="M120.51,29.65v10.03h25.29v7.85h-25.29v10.03h34.01v7.85h-42.73V21.8h42.73v7.85h-34.01Z"/>
        <path d="M162.36,65.4l17.88-43.6h13.08l17.88,43.6h-9.42l-3.58-8.72h-23.02l-3.58,8.72h-9.24ZM194.98,48.83l-7.85-19.19h-.87l-7.85,19.19h16.57Z"/>
        <path d="M210.32,21.8h43.6v7.85h-17.44v35.75h-8.72V29.65h-17.44v-7.85Z"/>
        <path d="M263.95,65.4V21.8h8.72v43.6h-8.72Z"/>
        <path d="M328.92,43.6c0,13.08-9.59,22.67-22.67,22.67s-22.67-9.59-22.67-22.67,9.59-22.67,22.67-22.67,22.67,9.59,22.67,22.67ZM319.76,43.6c0-8.28-5.67-14.39-13.52-14.39s-13.52,6.1-13.52,14.39,5.67,14.39,13.52,14.39,13.52-6.1,13.52-14.39Z"/>
        <path d="M348.54,35.32v30.08h-8.72V21.8h7.85l27.03,30.08v-30.08h8.72v43.6h-7.85l-27.03-30.08Z"/>
        <path d="M418.29,21.8h31.39c7.85,0,13.08,5.23,13.08,13.08,0,6.98-4.53,11.86-11.42,12.56.61.7,1.22,1.48,1.57,2.09l9.85,15.87h-9.85l-11.08-17.88h-14.82v17.88h-8.72V21.8ZM449.69,39.68c2.62,0,4.36-1.74,4.36-4.36v-1.31c0-2.62-1.74-4.36-4.36-4.36h-22.67v10.03h22.67Z"/>
        <path d="M474.1,65.4V21.8h8.72v43.6h-8.72Z"/>
        <path d="M516.39,47.96v-7.85h22.41c.17,1.13.26,2.27.26,3.49,0,13.08-9.59,22.67-22.67,22.67s-22.67-9.59-22.67-22.67,9.59-22.67,22.67-22.67c6.54,0,12.21,2.35,16.22,6.37l-6.19,6.28c-2.44-2.7-5.93-4.36-10.03-4.36-7.85,0-13.52,6.1-13.52,14.39s5.67,14.39,13.52,14.39c6.37,0,11.34-4.01,12.99-10.03h-12.99Z"/>
        <path d="M558.68,39.68h26.16v-17.88h8.72v43.6h-8.72v-17.88h-26.16v17.88h-8.72V21.8h8.72v17.88Z"/>
        <path d="M603.59,21.8h43.6v7.85h-17.44v35.75h-8.72V29.65h-17.44v-7.85Z"/>
        <path d="M687.3,52.06c0-3.49-3.84-4.97-12.56-4.97-13.78,0-19.71-3.66-19.71-12.47s6.98-13.69,20.06-13.69c12.03,0,20.06,5.58,20.06,13.95h-8.72c0-3.66-4.53-6.1-11.34-6.1-7.41,0-11.34,2.01-11.34,5.84,0,3.31,3.49,4.62,11.77,4.62,14.39,0,20.49,3.92,20.49,12.82s-7.33,14.21-20.93,14.21c-12.56,0-20.93-5.58-20.93-13.95h8.72c0,3.66,4.88,6.1,12.21,6.1,7.94,0,12.21-2.27,12.21-6.37Z"/>
      </g>
    </g>
  </g>
</svg>