<?xml version="1.0" encoding="UTF-8"?>
<svg id="Layer_2" data-name="Layer 2" xmlns="http://www.w3.org/2000/svg" viewBox="0 0 630.16 301.31">
  <defs>
    <style>
      .cls-1 {
        fill: #fff;
      }
    </style>
  </defs>
  <g id="Layer_1-2" data-name="Layer 1">
    <g>
      <g>
        <path class="cls-1" d="M150.66,301.31c-20.33,0-40.06-3.99-58.65-11.85-17.94-7.59-34.05-18.45-47.88-32.28-13.83-13.83-24.69-29.94-32.28-47.88C3.99,190.72,0,170.99,0,150.66s3.99-40.06,11.85-58.65c7.59-17.94,18.45-34.05,32.28-47.88,13.83-13.83,29.94-24.69,47.88-32.28C110.59,3.99,130.32,0,150.66,0s40.06,3.99,58.65,11.85c17.94,7.59,34.05,18.45,47.88,32.28,13.83,13.83,24.69,29.94,32.28,47.88,7.86,18.58,11.85,38.31,11.85,58.65s-3.99,40.06-11.85,58.65c-7.59,17.94-18.45,34.05-32.28,47.88-13.83,13.83-29.94,24.69-47.88,32.28-18.58,7.86-38.31,11.85-58.65,11.85ZM150.66,27.53c-67.89,0-123.12,55.23-123.12,123.12s55.23,123.12,123.12,123.12,123.12-55.23,123.12-123.12S218.55,27.53,150.66,27.53Z"/>
        <path class="cls-1" d="M190.96,162.63h28.47c-5.32,33.79-32.46,57.2-68.37,57.2-39.91,0-69.17-29.27-69.17-69.17s29.27-69.17,69.17-69.17c35.92,0,63.05,23.41,68.37,57.2h-28.47c-4.52-19.15-19.95-31.93-39.91-31.93-23.94,0-41.24,18.62-41.24,43.9s17.29,43.9,41.24,43.9c19.95,0,35.38-13.04,39.91-31.93Z"/>
      </g>
      <g>
        <path class="cls-1" d="M479.5,301.31c-20.33,0-40.06-3.99-58.65-11.85-17.94-7.59-34.05-18.45-47.88-32.28-13.83-13.83-24.69-29.94-32.28-47.88-7.86-18.58-11.85-38.31-11.85-58.65s3.99-40.06,11.85-58.65c7.59-17.94,18.45-34.05,32.28-47.88,13.83-13.83,29.94-24.69,47.88-32.28,18.58-7.86,38.31-11.85,58.65-11.85s40.06,3.99,58.65,11.85c17.94,7.59,34.05,18.45,47.88,32.28,13.83,13.83,24.69,29.94,32.28,47.88,7.86,18.58,11.85,38.31,11.85,58.65s-3.99,40.06-11.85,58.65c-7.59,17.94-18.45,34.05-32.28,47.88-13.83,13.83-29.94,24.69-47.88,32.28-18.58,7.86-38.31,11.85-58.65,11.85ZM479.5,27.53c-67.89,0-123.12,55.23-123.12,123.12s55.23,123.12,123.12,123.12,123.12-55.23,123.12-123.12-55.23-123.12-123.12-123.12Z"/>
        <path class="cls-1" d="M411.66,84.15h95.78c23.94,0,39.91,15.96,39.91,39.91,0,21.28-13.83,36.18-34.85,38.31,1.86,2.13,3.72,4.52,4.79,6.39l30.06,48.42h-30.06l-33.79-54.54h-45.23v54.54h-26.6V84.15ZM507.44,138.68c7.98,0,13.3-5.32,13.3-13.3v-3.99c0-7.98-5.32-13.3-13.3-13.3h-69.17v30.6h69.17Z"/>
      </g>
    </g>
  </g>
</svg>